<svg width="29" height="24" viewBox="0 0 29 24" fill="none" xmlns="http://www.w3.org/2000/svg">
<path d="M13.0762 0.0393848C11.9084 0.190762 10.6542 0.634075 9.81078 1.20173L9.54046 1.38555L9.34043 1.28283C8.98902 1.10442 8.47543 1.0017 7.9348 1.00711C6.18857 1.01792 4.54507 2.13702 2.62584 4.63472C1.62568 5.93763 0.912049 7.27839 0.625516 8.38127C0.457922 9.04083 0.457922 9.88421 0.630923 10.414C1.00936 11.5656 2.02034 12.4468 3.31244 12.7549C3.58275 12.8198 3.80981 12.8793 3.82063 12.8901C3.83144 12.8955 3.80441 13.1064 3.75575 13.3496C3.56112 14.312 3.5449 14.485 3.51787 15.5824C3.48544 16.8367 3.52869 17.3557 3.75034 18.2585C4.60994 21.7348 7.6753 23.6864 12.7085 23.9622L13.3951 24V21.1941V18.3829L12.9734 18.1072C12.2869 17.6638 11.6489 16.8962 11.3894 16.2096C11.1569 15.5824 11.2813 14.8201 11.6813 14.4309C11.8922 14.2255 12.2977 14.0254 12.6923 13.9281C13.1086 13.8254 15.5198 13.8254 15.9361 13.9281C16.3307 14.0254 16.7362 14.2255 16.9471 14.4309C17.3471 14.8201 17.4715 15.5824 17.239 16.2096C16.9795 16.8962 16.3416 17.6638 15.655 18.1072L15.2333 18.3829V21.1887V23.9892H15.4657C15.5901 23.9892 15.9956 23.9622 16.3686 23.9351C21.6235 23.5297 24.5591 21.2644 25.0781 17.2043C25.1159 16.8962 25.1322 16.2961 25.1105 15.5824C25.0835 14.485 25.0673 14.312 24.8727 13.3496C24.824 13.1064 24.797 12.8955 24.8078 12.8901C24.8186 12.8793 25.0511 12.8198 25.316 12.7549C26.6081 12.4468 27.619 11.5656 27.9975 10.414C28.1705 9.88421 28.1705 9.04083 28.0029 8.38127C27.7164 7.27839 27.0027 5.93763 26.0026 4.63472C24.0833 2.13702 22.4398 1.01792 20.6936 1.00711C20.153 1.0017 19.6394 1.10442 19.288 1.28283L19.0879 1.38555L18.8122 1.20173C18.1256 0.736795 17.1849 0.358356 16.1794 0.147511C15.5576 0.0177612 13.7682 -0.0471153 13.0762 0.0393848ZM11.9246 9.04083C12.8221 9.41927 12.8221 10.7168 11.9246 11.0952C11.3462 11.3331 10.665 11.0249 10.4757 10.4411C10.1784 9.54362 11.065 8.68402 11.9246 9.04083ZM17.5472 9.04083C17.958 9.21924 18.2067 9.59768 18.2067 10.068C18.2067 11.1763 16.7903 11.598 16.1848 10.6681C15.6009 9.77068 16.5578 8.62996 17.5472 9.04083Z" fill="#A8B7C8"/>
</svg>
