<svg width="25" height="24" viewBox="0 0 25 24" fill="none" xmlns="http://www.w3.org/2000/svg">
<path d="M6.82275 3.08052L1.8966 5.61082C1.23157 5.9524 0.812589 6.63638 0.810403 7.38401L0.808105 8.16983C0.808105 9.27672 0.831532 10.1786 0.854958 10.1786C0.88424 10.1786 3.58409 8.77306 6.85789 7.05124L11.8903 4.41144C12.4723 4.10613 13.1672 4.10628 13.7491 4.41182L18.7759 7.05124C22.0497 8.77306 24.7495 10.1786 24.7788 10.1786C24.8022 10.1786 24.8198 9.27672 24.8198 8.16983V7.38677C24.8198 6.6377 24.4012 5.95142 23.7352 5.60856L20.2693 3.8243C17.7627 2.53587 15.0687 1.14787 14.2781 0.737917L13.7491 0.466981C13.1767 0.173769 12.4981 0.173762 11.9256 0.466963L6.82275 3.08052Z" fill="#25457C"/>
<path d="M7.89446 7.51391C5.2356 8.91362 2.99255 10.0966 2.90471 10.1493C2.8033 10.2073 2.74072 10.3151 2.74072 10.4319V17.1245V22C2.74072 23.1046 3.63615 24 4.74072 24H5.72755H6.71437C7.81894 24 8.71437 23.1046 8.71437 22V21.2884C8.71437 18.7643 8.72023 18.5417 8.8315 18.1083C9.13604 16.9019 9.89739 15.9707 11.0277 15.4202C11.8827 14.9985 12.7202 14.8873 13.6221 15.0747C15.1975 15.3968 16.3981 16.5505 16.7964 18.1083C16.9076 18.5417 16.9135 18.7643 16.9135 21.2884V22C16.9135 23.1046 17.8089 24 18.9135 24H19.9003H20.8837C21.9896 24 22.8856 23.1025 22.8837 21.9966L22.8754 17.101L22.8601 11.0985C22.8587 10.5511 22.5532 10.0499 22.0672 9.79795C21.6338 9.56955 19.3849 8.38653 17.0775 7.17423C15.0951 6.13538 13.4009 5.25564 12.9309 5.02887C12.8457 4.98774 12.7593 4.98938 12.6744 5.03123C12.1646 5.28255 10.1989 6.30584 7.89446 7.51391ZM10.6412 9.37628C10.934 9.51098 11.2151 9.90337 11.2737 10.2489C11.2939 10.3771 11.4044 10.4714 11.5341 10.4714H12.8139H14.0938C14.2235 10.4714 14.334 10.3771 14.3542 10.2489C14.5299 9.16545 15.994 8.85505 16.6031 9.77452C16.8959 10.2196 16.8315 10.9517 16.4743 11.2914C16.3952 11.3672 16.3884 11.4913 16.4588 11.5752L16.486 11.6076C16.8022 11.9824 16.8842 12.4861 16.7085 12.9195C16.4274 13.593 15.5958 13.8682 14.9633 13.4993C14.6294 13.306 14.4713 13.0835 14.3776 12.6969C14.3364 12.5252 14.1828 12.4041 14.0062 12.4041H12.8139H11.6217C11.445 12.4041 11.2915 12.5252 11.2502 12.6969C11.1097 13.2884 10.6587 13.6515 10.0672 13.6574C8.98377 13.6632 8.43326 12.4451 9.14189 11.6076L9.18821 11.5544C9.24988 11.4836 9.24225 11.3762 9.17118 11.3148C8.98377 11.1449 8.8315 10.7643 8.8315 10.4363C8.8315 9.72182 9.51086 9.12445 10.2078 9.22987C10.3073 9.24158 10.5006 9.306 10.6412 9.37628Z" fill="#25457C"/>
</svg>
