<?xml version="1.0" standalone="no"?>
<!DOCTYPE svg PUBLIC "-//W3C//DTD SVG 20010904//EN"
 "http://www.w3.org/TR/2001/REC-SVG-20010904/DTD/svg10.dtd">
<svg version="1.0" xmlns="http://www.w3.org/2000/svg"
 width="512.000000pt" height="512.000000pt" viewBox="0 0 512.000000 512.000000"
 preserveAspectRatio="xMidYMid meet">

<g transform="translate(0.000000,512.000000) scale(0.100000,-0.100000)"
fill="#000000" stroke="none">
<path d="M626 4789 c-62 -15 -153 -68 -197 -116 -22 -24 -55 -74 -72 -111
l-32 -67 -3 -1825 c-2 -1285 1 -1844 8 -1890 37 -217 228 -410 444 -449 73
-13 3546 -16 3546 -3 0 5 -30 21 -67 35 -182 71 -311 207 -381 399 l-27 73 -5
1830 -5 1830 -32 67 c-44 93 -100 151 -191 196 l-76 37 -1435 2 c-845 1 -1452
-3 -1475 -8z m1220 -815 c15 -11 37 -33 48 -48 20 -27 21 -39 21 -406 0 -367
-1 -379 -21 -406 -11 -15 -33 -37 -48 -48 -27 -20 -39 -21 -406 -21 -367 0
-379 1 -406 21 -15 11 -37 33 -48 48 -20 26 -21 42 -24 379 -2 194 0 366 3
384 7 40 49 91 90 109 24 11 107 13 397 11 353 -2 368 -3 394 -23z m1260 7
c61 -28 89 -73 89 -143 0 -61 -17 -94 -69 -132 -26 -20 -42 -21 -384 -24 -310
-2 -363 -1 -400 14 -100 38 -133 163 -65 245 49 57 55 58 438 58 320 1 353 -1
391 -18z m0 -640 c61 -28 89 -73 89 -143 0 -61 -17 -94 -69 -132 -26 -20 -42
-21 -384 -24 -310 -2 -363 -1 -400 14 -100 38 -133 163 -65 245 49 57 55 58
438 58 320 1 353 -1 391 -18z m0 -640 c61 -28 89 -73 89 -143 0 -61 -17 -94
-69 -132 -27 -21 -35 -21 -1024 -24 -898 -2 -1001 -1 -1040 14 -100 38 -133
163 -65 245 52 61 -1 58 1078 58 944 1 992 0 1031 -18z m0 -640 c61 -28 89
-73 89 -143 0 -61 -17 -94 -69 -132 -27 -21 -35 -21 -1024 -24 -898 -2 -1001
-1 -1040 14 -100 38 -133 163 -65 245 52 61 -1 58 1078 58 944 1 992 0 1031
-18z m0 -640 c61 -28 89 -73 89 -143 0 -61 -17 -94 -69 -132 -27 -21 -35 -21
-1024 -24 -898 -2 -1001 -1 -1040 14 -100 38 -133 163 -65 245 52 61 -1 58
1078 58 944 1 992 0 1031 -18z"/>
<path d="M4162 2439 l3 -1564 23 -45 c35 -72 75 -114 144 -151 58 -31 70 -34
148 -33 72 0 93 4 136 26 75 39 107 70 145 140 l34 63 0 1410 0 1410 -32 67
c-44 93 -100 151 -191 196 l-76 37 -168 4 -168 3 2 -1563z"/>
</g>
</svg>
