<?xml version="1.0" standalone="no"?>
<!DOCTYPE svg PUBLIC "-//W3C//DTD SVG 20010904//EN"
 "http://www.w3.org/TR/2001/REC-SVG-20010904/DTD/svg10.dtd">
<svg version="1.0" xmlns="http://www.w3.org/2000/svg"
 width="512.000000pt" height="512.000000pt" viewBox="0 0 512.000000 512.000000"
 preserveAspectRatio="xMidYMid meet">

<g transform="translate(0.000000,512.000000) scale(0.100000,-0.100000)"
fill="#000000" stroke="none">
<path d="M1615 5106 c-37 -17 -70 -52 -84 -89 -8 -19 -11 -255 -11 -723 l0
-694 -704 0 -703 0 -33 -22 c-18 -13 -43 -36 -54 -51 -21 -28 -21 -33 -21
-770 l0 -742 24 -34 c13 -18 42 -42 65 -52 39 -18 80 -19 734 -19 l692 0 0
-696 c0 -685 0 -697 21 -733 11 -20 32 -45 47 -56 26 -19 45 -20 535 -23 280
-1 507 1 505 5 -125 251 -153 322 -189 493 -30 139 -33 427 -5 565 40 203 122
403 237 576 80 120 271 312 394 395 230 157 483 245 753 263 284 19 557 -37
801 -165 57 -29 106 -54 108 -54 2 0 3 225 3 501 0 554 1 546 -64 592 l-31 22
-710 5 -710 5 -5 707 c-5 694 -5 707 -26 734 -11 15 -33 37 -48 48 -27 21 -37
21 -759 23 -595 2 -738 0 -762 -11z"/>
<path d="M3825 2384 c-287 -31 -529 -142 -730 -335 -411 -395 -484 -1032 -171
-1506 257 -391 718 -598 1176 -529 260 40 477 150 666 340 191 190 300 405
340 666 94 627 -332 1226 -956 1344 -84 16 -259 27 -325 20z m173 -444 c97
-60 97 -210 0 -270 -44 -27 -122 -27 -166 0 -97 60 -97 210 0 270 44 27 122
27 166 0z m-521 -210 c106 -48 120 -195 25 -268 -46 -35 -135 -39 -178 -6 -53
39 -69 71 -69 134 0 71 21 105 85 138 54 27 82 27 137 2z m1033 -2 c111 -56
119 -196 16 -272 -39 -29 -133 -29 -172 0 -72 53 -93 138 -52 209 25 43 93 85
138 85 14 0 46 -10 70 -22z m-449 -404 c194 -58 350 -223 389 -410 18 -84 9
-199 -18 -256 -74 -150 -237 -218 -404 -168 -85 25 -145 24 -248 -4 -153 -43
-311 28 -381 170 -28 58 -37 172 -20 256 39 188 187 346 381 409 72 24 226 25
301 3z"/>
<path d="M3865 1021 c-98 -24 -175 -113 -175 -202 0 -26 3 -30 18 -24 119 46
295 46 415 0 14 -6 17 -1 17 26 0 80 -74 167 -164 194 -54 16 -65 17 -111 6z"/>
</g>
</svg>
